<svg xmlns="http://www.w3.org/2000/svg" xmlns:xlink="http://www.w3.org/1999/xlink" width="250" zoomAndPan="magnify" viewBox="0 0 187.5 74.999997" height="100" preserveAspectRatio="xMidYMid meet" version="1.0"><defs><g/><clipPath id="38cdb5aa1b"><path d="M 0 0.101562 L 187 0.101562 L 187 74.898438 L 0 74.898438 Z M 0 0.101562 " clip-rule="nonzero"/></clipPath><clipPath id="bb1c091de4"><path d="M 13.394531 24.675781 L 34.339844 24.675781 L 34.339844 50.109375 L 13.394531 50.109375 Z M 13.394531 24.675781 " clip-rule="nonzero"/></clipPath></defs><g clip-path="url(#38cdb5aa1b)"><path fill="#ffffff" d="M 0 0.101562 L 187 0.101562 L 187 74.898438 L 0 74.898438 Z M 0 0.101562 " fill-opacity="1" fill-rule="nonzero"/><path fill="#ffffff" d="M 0 0.101562 L 187 0.101562 L 187 74.898438 L 0 74.898438 Z M 0 0.101562 " fill-opacity="1" fill-rule="nonzero"/></g><path fill="#000000" d="M 26.84375 28.289062 C 26.765625 28.382812 26.777344 28.515625 26.867188 28.589844 C 27.042969 28.738281 27.207031 28.996094 27.324219 29.316406 C 27.355469 29.398438 27.4375 29.453125 27.519531 29.453125 C 27.546875 29.453125 27.570312 29.449219 27.597656 29.4375 C 27.707031 29.398438 27.757812 29.277344 27.71875 29.167969 C 27.574219 28.777344 27.375 28.464844 27.140625 28.265625 C 27.050781 28.191406 26.917969 28.203125 26.84375 28.289062 Z M 26.84375 28.289062 " fill-opacity="1" fill-rule="nonzero"/><g clip-path="url(#bb1c091de4)"><path fill="#000000" d="M 23.867188 24.675781 C 18.097656 24.675781 13.398438 29.355469 13.398438 35.101562 C 13.398438 42.105469 23.191406 49.703125 23.609375 50.023438 C 23.683594 50.082031 23.777344 50.109375 23.867188 50.109375 C 23.957031 50.109375 24.042969 50.082031 24.117188 50.03125 C 24.21875 49.957031 34.339844 42.191406 34.339844 35.101562 C 34.339844 29.355469 29.640625 24.675781 23.867188 24.675781 Z M 22.554688 32.699219 C 22.554688 33.171875 22.167969 33.554688 21.695312 33.554688 C 21.496094 33.554688 21.339844 33.710938 21.339844 33.910156 L 21.339844 35.15625 L 21.402344 35.203125 C 21.605469 35.347656 21.726562 35.582031 21.726562 35.828125 L 21.726562 42.339844 C 21.726562 42.761719 21.382812 43.105469 20.957031 43.105469 L 20.882812 43.105469 C 20.457031 43.105469 20.113281 42.761719 20.113281 42.339844 L 20.113281 35.828125 C 20.113281 35.578125 20.234375 35.347656 20.441406 35.203125 L 20.503906 35.15625 L 20.503906 33.910156 C 20.503906 33.714844 20.34375 33.554688 20.144531 33.554688 C 19.667969 33.554688 19.28125 33.171875 19.28125 32.699219 L 19.28125 31.429688 L 19.472656 27.996094 C 19.472656 27.726562 19.609375 27.519531 19.789062 27.519531 C 19.960938 27.519531 20.097656 27.734375 20.097656 28 L 19.976562 31.398438 C 19.976562 31.5625 20.109375 31.695312 20.273438 31.695312 C 20.4375 31.695312 20.574219 31.5625 20.574219 31.398438 L 20.605469 28.003906 C 20.605469 27.730469 20.742188 27.519531 20.917969 27.519531 C 21.097656 27.519531 21.234375 27.726562 21.234375 28.007812 L 21.265625 31.398438 C 21.265625 31.5625 21.398438 31.695312 21.5625 31.695312 C 21.726562 31.695312 21.863281 31.5625 21.863281 31.394531 L 21.742188 28.011719 C 21.742188 27.730469 21.875 27.519531 22.050781 27.519531 C 22.230469 27.519531 22.367188 27.730469 22.367188 28.015625 L 22.554688 31.398438 Z M 27.183594 33.378906 C 27.078125 33.4375 27.011719 33.554688 27.011719 33.679688 L 27.011719 35.132812 L 27.074219 35.179688 C 27.28125 35.324219 27.402344 35.554688 27.402344 35.800781 L 27.402344 42.3125 C 27.402344 42.734375 27.058594 43.078125 26.632812 43.078125 L 26.558594 43.078125 C 26.132812 43.078125 25.789062 42.734375 25.789062 42.3125 L 25.789062 35.800781 C 25.789062 35.558594 25.910156 35.324219 26.113281 35.175781 L 26.175781 35.132812 L 26.175781 33.679688 C 26.175781 33.550781 26.109375 33.433594 26.003906 33.375 C 25.242188 32.96875 24.734375 31.828125 24.734375 30.539062 C 24.734375 28.859375 25.550781 27.542969 26.59375 27.542969 C 27.636719 27.542969 28.453125 28.859375 28.453125 30.539062 C 28.457031 31.828125 27.945312 32.96875 27.183594 33.378906 Z M 27.183594 33.378906 " fill-opacity="1" fill-rule="nonzero"/></g><g fill="#000000" fill-opacity="1"><g transform="translate(38.345724, 44.03267)"><g><path d="M 15.4375 -13.625 L 15.4375 0 L 13.640625 0 L 13.640625 -10.15625 L 9.109375 0 L 7.859375 0 L 3.3125 -10.171875 L 3.3125 0 L 1.515625 0 L 1.515625 -13.625 L 3.4375 -13.625 L 8.484375 -2.359375 L 13.53125 -13.625 Z M 15.4375 -13.625 "/></g></g></g><g fill="#000000" fill-opacity="1"><g transform="translate(55.28175, 44.03267)"><g><path d="M 9.625 -3.046875 L 3.640625 -3.046875 L 2.546875 0 L 0.65625 0 L 5.609375 -13.640625 L 7.671875 -13.640625 L 12.625 0 L 10.734375 0 Z M 9.109375 -4.515625 L 6.640625 -11.4375 L 4.15625 -4.515625 Z M 9.109375 -4.515625 "/></g></g></g><g fill="#000000" fill-opacity="1"><g transform="translate(68.539452, 44.03267)"><g><path d="M 10.6875 -9.703125 C 10.6875 -8.566406 10.296875 -7.617188 9.515625 -6.859375 C 8.734375 -6.109375 7.546875 -5.734375 5.953125 -5.734375 L 3.3125 -5.734375 L 3.3125 0 L 1.515625 0 L 1.515625 -13.71875 L 5.953125 -13.71875 C 7.492188 -13.71875 8.664062 -13.34375 9.46875 -12.59375 C 10.28125 -11.851562 10.6875 -10.890625 10.6875 -9.703125 Z M 5.953125 -7.203125 C 6.941406 -7.203125 7.671875 -7.414062 8.140625 -7.84375 C 8.617188 -8.28125 8.859375 -8.898438 8.859375 -9.703125 C 8.859375 -11.398438 7.890625 -12.25 5.953125 -12.25 L 3.3125 -12.25 L 3.3125 -7.203125 Z M 5.953125 -7.203125 "/></g></g></g><g fill="#000000" fill-opacity="1"><g transform="translate(79.928488, 44.03267)"><g/></g></g><g fill="#000000" fill-opacity="1"><g transform="translate(85.180424, 44.03267)"><g><path d="M 15.4375 -13.625 L 15.4375 0 L 13.640625 0 L 13.640625 -10.15625 L 9.109375 0 L 7.859375 0 L 3.3125 -10.171875 L 3.3125 0 L 1.515625 0 L 1.515625 -13.625 L 3.4375 -13.625 L 8.484375 -2.359375 L 13.53125 -13.625 Z M 15.4375 -13.625 "/></g></g></g><g fill="#000000" fill-opacity="1"><g transform="translate(102.11645, 44.03267)"><g><path d="M 11.125 -13.71875 L 6.65625 -5.171875 L 6.65625 0 L 4.859375 0 L 4.859375 -5.171875 L 0.375 -13.71875 L 2.359375 -13.71875 L 5.75 -6.765625 L 9.140625 -13.71875 Z M 11.125 -13.71875 "/></g></g></g><g fill="#000000" fill-opacity="1"><g transform="translate(113.603837, 44.03267)"><g/></g></g><g fill="#000000" fill-opacity="1"><g transform="translate(118.855773, 44.03267)"><g><path d="M 9.265625 -13.71875 L 9.265625 -12.265625 L 3.3125 -12.265625 L 3.3125 -7.640625 L 8.15625 -7.640625 L 8.15625 -6.1875 L 3.3125 -6.1875 L 3.3125 0 L 1.515625 0 L 1.515625 -13.71875 Z M 9.265625 -13.71875 "/></g></g></g><g fill="#000000" fill-opacity="1"><g transform="translate(128.769548, 44.03267)"><g><path d="M 7.734375 0.140625 C 6.460938 0.140625 5.300781 -0.15625 4.25 -0.75 C 3.195312 -1.351562 2.363281 -2.1875 1.75 -3.25 C 1.144531 -4.320312 0.84375 -5.53125 0.84375 -6.875 C 0.84375 -8.207031 1.144531 -9.410156 1.75 -10.484375 C 2.363281 -11.554688 3.195312 -12.390625 4.25 -12.984375 C 5.300781 -13.578125 6.460938 -13.875 7.734375 -13.875 C 9.023438 -13.875 10.191406 -13.578125 11.234375 -12.984375 C 12.285156 -12.390625 13.113281 -11.5625 13.71875 -10.5 C 14.320312 -9.4375 14.625 -8.226562 14.625 -6.875 C 14.625 -5.519531 14.320312 -4.3125 13.71875 -3.25 C 13.113281 -2.1875 12.285156 -1.351562 11.234375 -0.75 C 10.191406 -0.15625 9.023438 0.140625 7.734375 0.140625 Z M 7.734375 -1.421875 C 8.691406 -1.421875 9.554688 -1.640625 10.328125 -2.078125 C 11.097656 -2.523438 11.703125 -3.160156 12.140625 -3.984375 C 12.578125 -4.816406 12.796875 -5.78125 12.796875 -6.875 C 12.796875 -7.976562 12.578125 -8.9375 12.140625 -9.75 C 11.703125 -10.570312 11.097656 -11.207031 10.328125 -11.65625 C 9.566406 -12.101562 8.703125 -12.328125 7.734375 -12.328125 C 6.765625 -12.328125 5.898438 -12.101562 5.140625 -11.65625 C 4.378906 -11.207031 3.773438 -10.570312 3.328125 -9.75 C 2.890625 -8.9375 2.671875 -7.976562 2.671875 -6.875 C 2.671875 -5.78125 2.890625 -4.816406 3.328125 -3.984375 C 3.773438 -3.160156 4.378906 -2.523438 5.140625 -2.078125 C 5.910156 -1.640625 6.773438 -1.421875 7.734375 -1.421875 Z M 7.734375 -1.421875 "/></g></g></g><g fill="#000000" fill-opacity="1"><g transform="translate(144.230314, 44.03267)"><g><path d="M 7.734375 0.140625 C 6.460938 0.140625 5.300781 -0.15625 4.25 -0.75 C 3.195312 -1.351562 2.363281 -2.1875 1.75 -3.25 C 1.144531 -4.320312 0.84375 -5.53125 0.84375 -6.875 C 0.84375 -8.207031 1.144531 -9.410156 1.75 -10.484375 C 2.363281 -11.554688 3.195312 -12.390625 4.25 -12.984375 C 5.300781 -13.578125 6.460938 -13.875 7.734375 -13.875 C 9.023438 -13.875 10.191406 -13.578125 11.234375 -12.984375 C 12.285156 -12.390625 13.113281 -11.5625 13.71875 -10.5 C 14.320312 -9.4375 14.625 -8.226562 14.625 -6.875 C 14.625 -5.519531 14.320312 -4.3125 13.71875 -3.25 C 13.113281 -2.1875 12.285156 -1.351562 11.234375 -0.75 C 10.191406 -0.15625 9.023438 0.140625 7.734375 0.140625 Z M 7.734375 -1.421875 C 8.691406 -1.421875 9.554688 -1.640625 10.328125 -2.078125 C 11.097656 -2.523438 11.703125 -3.160156 12.140625 -3.984375 C 12.578125 -4.816406 12.796875 -5.78125 12.796875 -6.875 C 12.796875 -7.976562 12.578125 -8.9375 12.140625 -9.75 C 11.703125 -10.570312 11.097656 -11.207031 10.328125 -11.65625 C 9.566406 -12.101562 8.703125 -12.328125 7.734375 -12.328125 C 6.765625 -12.328125 5.898438 -12.101562 5.140625 -11.65625 C 4.378906 -11.207031 3.773438 -10.570312 3.328125 -9.75 C 2.890625 -8.9375 2.671875 -7.976562 2.671875 -6.875 C 2.671875 -5.78125 2.890625 -4.816406 3.328125 -3.984375 C 3.773438 -3.160156 4.378906 -2.523438 5.140625 -2.078125 C 5.910156 -1.640625 6.773438 -1.421875 7.734375 -1.421875 Z M 7.734375 -1.421875 "/></g></g></g><g fill="#000000" fill-opacity="1"><g transform="translate(159.69108, 44.03267)"><g><path d="M 5.78125 -13.71875 C 7.28125 -13.71875 8.578125 -13.4375 9.671875 -12.875 C 10.765625 -12.320312 11.601562 -11.523438 12.1875 -10.484375 C 12.78125 -9.453125 13.078125 -8.234375 13.078125 -6.828125 C 13.078125 -5.421875 12.78125 -4.203125 12.1875 -3.171875 C 11.601562 -2.148438 10.765625 -1.363281 9.671875 -0.8125 C 8.578125 -0.269531 7.28125 0 5.78125 0 L 1.515625 0 L 1.515625 -13.71875 Z M 5.78125 -1.46875 C 7.5625 -1.46875 8.914062 -1.9375 9.84375 -2.875 C 10.769531 -3.820312 11.234375 -5.140625 11.234375 -6.828125 C 11.234375 -8.535156 10.765625 -9.867188 9.828125 -10.828125 C 8.890625 -11.785156 7.539062 -12.265625 5.78125 -12.265625 L 3.3125 -12.265625 L 3.3125 -1.46875 Z M 5.78125 -1.46875 "/></g></g></g></svg>